<?xml version="1.0" standalone="no"?>
<!DOCTYPE svg PUBLIC "-//W3C//DTD SVG 20010904//EN"
 "http://www.w3.org/TR/2001/REC-SVG-20010904/DTD/svg10.dtd">
<svg version="1.0" xmlns="http://www.w3.org/2000/svg"
 width="1024.000000pt" height="1024.000000pt" viewBox="0 0 1024.000000 1024.000000"
 preserveAspectRatio="xMidYMid meet">
<metadata>
Created by potrace 1.16, written by Peter Selinger 2001-2019
</metadata>
<g transform="translate(0.000000,1024.000000) scale(0.100000,-0.100000)"
fill="#000000" stroke="none">
<path d="M4358 8600 c-40 -22 -69 -58 -86 -109 -8 -21 -12 -109 -12 -232 l0
-199 -75 0 -75 0 0 33 c0 41 -31 92 -72 117 -29 18 -51 20 -188 20 -131 0
-161 -3 -190 -18 -40 -21 -70 -72 -70 -118 0 -29 -4 -33 -46 -43 -58 -15 -113
-50 -152 -97 -63 -77 -62 -58 -62 -824 l0 -697 -187 -6 c-189 -5 -285 -22
-362 -61 -25 -14 -30 -11 -152 92 -251 213 -995 829 -1019 844 -18 11 -79 19
-220 27 -439 27 -715 38 -737 30 -25 -9 -38 -47 -29 -81 5 -21 168 -319 346
-632 86 -151 103 -172 252 -299 348 -295 351 -297 380 -291 26 5 28 3 28 -24
0 -22 -10 -38 -35 -61 -32 -28 -42 -31 -101 -31 -88 0 -130 23 -198 109 -101
126 -173 166 -297 165 -133 -2 -260 -93 -310 -222 -30 -77 -37 -209 -15 -283
32 -111 131 -233 233 -286 156 -82 335 -84 568 -6 105 36 198 37 273 4 28 -13
52 -27 52 -32 0 -5 -28 -9 -63 -9 -131 0 -292 -64 -404 -161 -117 -101 -211
-134 -413 -145 -134 -8 -248 5 -374 42 -133 38 -151 23 -112 -92 61 -179 125
-293 216 -382 69 -68 142 -109 319 -178 178 -70 271 -131 347 -225 61 -75 144
-136 228 -168 75 -28 205 -51 290 -51 84 -1 82 -2 -76 -66 -262 -106 -620
-233 -713 -254 -164 -37 -288 -105 -369 -204 -208 -254 -190 -585 44 -817 130
-129 282 -186 465 -176 59 3 127 14 165 26 173 55 324 194 382 353 l21 58 176
117 c261 173 402 242 720 353 l124 44 66 -24 c54 -20 91 -25 210 -30 l145 -5
-145 -124 c-79 -68 -157 -135 -172 -148 -42 -36 -63 -93 -91 -245 -23 -123
-25 -160 -24 -370 1 -211 -1 -241 -20 -312 -27 -99 -86 -221 -146 -303 -55
-76 -58 -99 -13 -117 67 -28 279 -56 423 -57 313 -1 551 89 1026 388 33 20 50
47 118 186 111 226 201 381 502 862 85 136 78 162 78 -306 0 -458 3 -433 -71
-634 -28 -76 -33 -107 -37 -198 -8 -211 44 -337 229 -547 100 -114 155 -170
166 -170 5 0 23 30 39 68 43 102 108 216 186 325 38 54 84 128 101 165 28 61
31 76 31 162 0 102 -7 134 -73 320 l-41 115 0 385 0 385 29 -60 c67 -142 239
-329 399 -433 218 -142 504 -216 740 -192 123 13 173 26 259 66 73 35 98 60
87 87 -6 15 -66 45 -139 67 -96 30 -219 104 -296 180 -114 112 -149 198 -149
367 l0 93 416 0 c383 0 422 2 494 20 43 11 99 29 125 40 26 11 54 20 63 20 9
0 66 -18 127 -41 384 -142 576 -234 718 -346 55 -43 124 -96 154 -118 43 -32
59 -51 77 -95 63 -157 210 -294 376 -350 78 -27 247 -38 333 -21 229 43 414
218 472 446 50 196 -14 415 -164 565 -91 91 -185 138 -353 179 -45 12 -126 39
-178 60 -52 22 -171 70 -265 106 -216 84 -286 116 -280 125 3 5 34 25 70 45
91 51 170 119 251 216 80 98 85 102 144 133 77 40 200 76 313 92 126 17 214
48 293 100 101 67 191 196 229 329 25 83 16 235 -17 326 -63 170 -218 309
-387 345 -195 41 -367 -10 -507 -150 -115 -115 -164 -236 -164 -405 0 -92 19
-169 61 -252 l31 -62 -12 -86 c-28 -207 -104 -330 -280 -446 -64 -42 -201
-107 -209 -99 -2 2 14 43 37 92 90 193 132 398 139 669 6 206 -4 324 -39 490
l-21 101 34 29 c43 37 495 417 597 501 177 147 202 179 202 260 0 72 -27 120
-116 209 l-75 73 115 222 c103 202 200 429 239 563 24 84 -4 115 -95 101 -75
-12 -362 -128 -557 -225 l-194 -96 -191 -179 c-105 -99 -311 -296 -458 -438
l-268 -260 -47 41 c-25 23 -70 55 -100 72 l-53 31 256 261 c178 181 279 276
328 308 66 44 170 148 241 242 15 21 52 54 82 74 30 20 99 86 153 147 115 131
212 229 265 271 40 31 68 83 63 117 -2 17 11 28 70 58 121 62 192 145 218 259
22 92 14 411 -12 493 -11 34 -49 40 -112 17 -83 -30 -186 -56 -277 -69 -152
-22 -214 -49 -278 -120 -47 -51 -63 -83 -77 -155 -11 -56 -15 -61 -51 -78 -29
-14 -46 -32 -64 -67 -17 -33 -32 -50 -50 -54 -35 -9 -111 -88 -125 -130 -8
-24 -26 -44 -60 -66 -54 -35 -117 -104 -145 -160 -9 -19 -89 -108 -176 -196
l-159 -161 0 -69 0 -69 -232 -240 c-128 -132 -284 -293 -348 -358 l-115 -118
1 618 c1 340 -2 660 -7 712 -7 86 -12 99 -45 148 -20 29 -51 62 -69 73 -33 20
-33 21 -37 109 -3 101 -19 133 -79 163 -29 16 -64 18 -252 18 -239 0 -263 -5
-302 -58 -15 -21 -21 -47 -24 -109 l-3 -83 -63 0 -64 0 -3 208 c-3 192 -5 210
-25 249 -13 23 -39 54 -60 70 l-36 28 -601 2 c-579 2 -602 2 -638 -17z m1174
-147 c25 -30 29 -41 17 -49 -7 -4 -9 -3 -6 3 4 6 -6 13 -23 15 -20 3 -31 0
-36 -11 -4 -9 -9 -86 -11 -171 -2 -85 -5 -156 -7 -157 -17 -17 -172 -25 -573
-30 l-473 -6 0 192 c0 178 1 192 20 211 19 19 33 20 548 20 491 0 530 -1 544
-17z m796 -305 c15 -15 16 -55 1 -64 -8 -4 -7 -9 2 -15 10 -6 3 -9 -21 -9 -19
-1 -97 -3 -172 -4 l-138 -4 0 54 0 54 158 0 c110 0 162 -4 170 -12z m-1664
-236 c3 -5 -18 -20 -47 -33 -67 -31 -199 -163 -250 -249 -21 -36 -50 -101 -64
-145 -24 -72 -27 -94 -27 -225 1 -120 4 -156 22 -206 39 -116 110 -232 192
-315 26 -26 51 -56 54 -66 6 -15 8 -15 16 -3 9 13 14 7 11 -12 -1 -13 61 -58
71 -52 6 4 8 2 5 -3 -8 -12 76 -65 192 -121 l84 -41 -129 1 c-71 1 -116 3
-100 5 l29 5 -27 13 c-43 23 -93 25 -583 29 -354 3 -473 1 -473 -7 0 -9 -2 -9
-8 -1 -4 6 -18 14 -32 18 -17 5 -20 4 -12 -2 11 -7 9 -10 -7 -15 -13 -3 -19
-1 -15 5 4 6 -2 8 -16 3 -17 -5 -21 -4 -15 6 5 8 4 10 0 6 -5 -4 -11 -20 -13
-35 -4 -32 -7 -36 -21 -27 -7 4 -11 46 -11 106 l0 99 273 0 c260 0 275 1 292
20 13 15 16 30 13 65 -3 25 -2 45 3 45 5 0 7 151 6 336 l-2 337 31 33 c68 72
48 185 -41 232 -26 14 -69 15 -302 13 l-273 -3 0 44 c0 72 40 121 115 139 43
10 1053 11 1059 1z m1754 -6 c16 -8 34 -22 42 -30 11 -14 8 -16 -26 -11 -27 3
-34 2 -24 -5 8 -5 10 -10 5 -10 -14 0 -6 -90 9 -90 6 0 2 -7 -8 -15 -16 -12
-66 -15 -276 -15 -232 0 -258 -2 -272 -17 -40 -47 -32 -93 20 -118 l37 -18
-45 -11 -45 -11 0 -374 c0 -294 3 -375 13 -378 10 -4 10 -9 1 -19 -10 -12 -8
-13 7 -8 16 6 17 5 7 -7 -20 -21 -16 -83 7 -104 18 -16 44 -17 325 -16 l305 2
0 -32 c0 -28 -2 -31 -12 -17 -9 11 -23 15 -46 11 l-33 -5 2 -56 3 -56 -287 1
c-174 0 -287 -3 -287 -9 0 -6 -35 -7 -87 -3 -70 5 -103 2 -163 -14 -70 -18
-72 -19 -32 -20 23 -1 42 4 42 9 0 6 10 9 23 9 20 -1 20 -2 2 -7 l-20 -5 20
-8 c12 -5 -13 -8 -67 -8 -49 -1 -88 2 -89 7 0 4 -2 15 -4 24 -2 10 7 21 26 28
16 7 29 15 29 19 0 4 14 15 31 25 38 23 69 52 69 67 0 5 -4 8 -9 5 -11 -7 -41
3 -41 13 0 4 15 5 34 3 27 -3 40 2 60 22 14 14 26 34 26 44 0 11 7 22 14 25 8
3 18 22 22 41 3 20 10 36 14 36 4 0 15 21 25 48 53 148 60 303 19 410 -14 37
-32 81 -41 97 -27 51 -84 125 -92 120 -5 -2 -21 28 -36 66 -31 79 -123 208
-188 265 -23 20 -67 50 -97 67 l-55 32 30 6 c17 3 267 7 558 8 444 1 532 -1
555 -13z m-1274 -137 c33 -13 61 -31 64 -39 2 -11 1 -12 -5 -3 -12 17 -198 36
-222 23 -10 -5 -21 -7 -24 -3 -9 8 -97 -20 -91 -29 3 -5 -6 -6 -19 -3 -18 5
-28 2 -35 -12 -6 -10 -14 -17 -19 -16 -4 2 -30 -11 -56 -27 -32 -20 -46 -34
-41 -42 4 -7 3 -10 -1 -5 -13 11 -92 -80 -124 -143 -16 -30 -36 -90 -46 -132
-15 -67 -21 -79 -45 -92 -16 -7 -31 -11 -34 -8 -12 11 -5 81 14 156 51 199
184 339 370 391 82 22 237 15 314 -16z m2974 -174 c73 -66 132 -122 132 -126
0 -10 -112 -119 -122 -119 -22 0 -308 262 -308 282 0 5 25 36 56 68 l57 59 27
-22 c15 -12 86 -76 158 -142z m-4298 -28 c0 -20 -5 -22 -37 -21 -21 1 -71 0
-110 -3 l-73 -6 0 -373 0 -374 -55 0 -55 0 0 400 0 400 165 0 165 0 0 -23z
m2684 9 c-7 -17 -97 -25 -332 -30 -150 -3 -186 -1 -198 11 -7 8 -14 19 -14 24
0 5 112 9 275 9 227 0 273 -2 269 -14z m-1437 -86 c49 -22 125 -99 118 -118
-3 -8 0 -10 7 -6 8 5 9 0 4 -17 -19 -69 -19 -69 0 -70 18 -1 18 -2 1 -6 -15
-4 -18 -13 -16 -46 3 -72 -29 -120 -96 -142 -16 -5 -30 -17 -30 -25 0 -11 -10
-14 -38 -12 -21 2 -37 -2 -37 -8 0 -6 -10 -8 -24 -4 -14 3 -27 1 -31 -6 -5 -9
-1 -10 14 -5 12 4 21 2 21 -4 0 -14 -24 -14 -74 0 -48 13 -119 78 -146 133
-22 46 -28 152 -10 184 5 9 17 34 26 55 43 97 202 147 311 97z m2812 -108
c114 -107 130 -126 121 -143 -15 -26 -189 -208 -213 -220 -15 -8 -27 -5 -55
15 -58 41 -232 210 -232 225 0 16 230 253 242 249 4 -2 66 -58 137 -126z
m-6560 -190 c52 -4 86 -12 88 -19 3 -7 -32 -29 -82 -53 l-87 -41 8 -52 c10
-72 7 -118 -9 -134 -7 -7 -39 -18 -72 -24 -66 -13 -94 -31 -96 -63 -1 -17 -2
-18 -6 -3 -2 9 -8 17 -12 17 -5 0 -6 11 -4 24 3 13 -1 27 -7 31 -9 5 -10 1 -5
-16 11 -34 1 -22 -36 46 -28 53 -29 58 -9 40 l23 -20 -12 23 c-9 16 -9 22 0
22 8 0 9 4 0 13 -6 8 -8 17 -4 20 3 4 1 7 -6 7 -7 0 -2 19 14 50 14 28 28 70
32 95 l6 45 96 -1 c53 -1 134 -4 180 -7z m341 -127 c47 -39 146 -120 220 -180
74 -60 207 -170 296 -245 88 -74 217 -181 286 -238 176 -144 168 -129 104
-181 -30 -23 -68 -58 -86 -77 l-31 -35 -72 64 c-40 35 -128 108 -197 162 -69
55 -204 165 -300 245 -96 80 -198 163 -225 185 -28 21 -90 73 -139 115 -145
122 -145 122 -81 134 48 9 93 50 105 97 13 46 7 49 120 -46z m7263 20 c24 -30
48 -51 51 -47 16 16 -82 -200 -110 -243 -13 -20 -18 -22 -29 -12 -7 7 -32 19
-56 26 -82 24 -86 27 -93 68 -9 44 -31 83 -49 84 -6 0 -30 9 -52 19 l-40 18
45 20 c25 11 95 43 155 71 61 28 115 50 121 51 6 0 32 -25 57 -55z m-1381 -66
l68 -60 -25 -27 c-14 -15 -23 -32 -21 -38 3 -7 -3 -10 -15 -7 -10 3 -19 9 -19
13 0 7 -168 -161 -337 -337 -40 -42 -70 -80 -66 -86 3 -5 1 -7 -4 -4 -6 4 -27
-7 -48 -23 -21 -16 -41 -27 -46 -24 -5 3 -50 5 -100 5 l-90 0 83 88 c212 227
534 559 543 560 6 0 40 -27 77 -60z m986 -170 c25 -14 31 -25 37 -65 9 -70 24
-85 97 -99 59 -10 81 -26 46 -33 -17 -3 -79 -56 -162 -137 -28 -27 -89 -84
-136 -125 -46 -41 -125 -114 -174 -162 -50 -49 -92 -88 -94 -88 -3 0 -27 -22
-181 -167 -36 -33 -81 -74 -100 -90 -89 -74 -111 -97 -112 -117 0 -13 -3 -16
-6 -7 -4 10 -9 8 -19 -10 l-13 -24 -1 22 c0 54 -90 264 -124 292 -9 8 -16 19
-16 25 0 7 71 81 158 166 258 254 450 439 580 563 l123 116 33 -22 c19 -12 47
-29 64 -38z m-7128 -42 c14 -12 45 -38 70 -57 25 -19 112 -91 194 -160 82 -69
163 -136 180 -150 17 -13 108 -87 201 -165 94 -77 200 -164 236 -192 101 -80
98 -70 49 -168 -23 -47 -47 -85 -53 -84 -8 0 -8 2 1 6 6 2 12 15 12 27 0 12 4
26 10 32 6 6 -17 30 -66 69 -173 136 -314 256 -314 266 0 5 -6 9 -14 9 -7 0
-36 18 -64 41 -28 22 -54 40 -57 40 -3 -1 -15 -1 -27 -1 -18 0 -20 2 -9 9 12
8 13 12 1 26 -14 17 -127 105 -135 105 -2 0 -15 10 -28 23 -67 64 -92 81 -122
80 -16 -1 -24 1 -17 3 6 3 12 9 12 13 0 4 -37 39 -82 77 -55 47 -88 68 -102
66 -15 -3 -11 3 14 20 19 13 44 38 55 55 11 18 22 32 25 33 3 0 16 -10 30 -23z
m7437 -476 c23 -16 54 -46 69 -66 l28 -37 -50 -47 c-27 -25 -132 -116 -233
-201 -457 -386 -536 -450 -559 -450 -36 0 -54 -13 -211 -151 -80 -71 -148
-129 -151 -129 -3 0 -6 28 -8 62 -3 76 3 85 117 185 77 68 306 274 441 397 56
51 229 207 289 261 25 22 84 77 131 122 47 46 88 83 91 83 3 0 24 -13 46 -29z
m-1827 -87 c175 -41 318 -141 424 -296 31 -46 39 -67 41 -112 2 -30 6 -61 10
-68 4 -7 -2 -2 -13 12 l-20 25 -6 -25 c-5 -23 -17 -87 -33 -170 -4 -19 -9
-348 -12 -730 -6 -651 -7 -697 -24 -729 -11 -19 -19 -49 -19 -67 0 -27 -4 -34
-20 -34 -16 0 -19 -5 -16 -24 4 -17 1 -23 -8 -19 -8 3 -21 -8 -31 -26 -10 -17
-21 -31 -25 -31 -13 0 -9 -18 5 -23 6 -2 3 -3 -9 -1 -28 5 -65 -22 -57 -42 5
-13 1 -15 -16 -9 -14 4 -30 0 -47 -14 -15 -12 -34 -21 -43 -21 -9 0 -27 -7
-39 -16 -43 -30 -131 -36 -595 -43 -293 -4 -470 -10 -475 -16 -4 -6 -18 -16
-32 -23 -25 -13 -26 -17 -29 -120 -1 -58 -4 -109 -7 -113 -2 -4 1 -9 7 -11 6
-2 11 -27 11 -58 -1 -102 37 -258 60 -244 7 5 9 2 5 -8 -6 -17 12 -77 30 -99
6 -8 20 -35 31 -61 21 -49 56 -101 103 -153 34 -39 43 -71 18 -71 -10 0 -17 5
-16 10 1 6 -2 11 -8 11 -33 4 -84 20 -119 40 -23 12 -47 20 -54 18 -23 -9 -64
7 -58 22 3 9 0 12 -10 8 -8 -3 -13 -12 -10 -19 3 -8 1 -14 -3 -14 -5 0 -11 5
-13 12 -3 7 -12 9 -23 4 -12 -4 -15 -10 -9 -14 6 -4 10 -15 8 -24 -1 -10 2
-18 7 -18 5 0 9 -5 9 -10 0 -6 -8 -5 -19 2 -11 7 -18 16 -15 20 3 4 -1 5 -9 2
-15 -5 -82 44 -72 54 3 3 15 -5 27 -18 l21 -23 18 22 c9 11 23 21 31 21 10 0
10 2 -2 10 -9 5 -19 5 -27 -1 -14 -13 -56 7 -50 24 6 18 27 20 27 3 0 -9 5
-16 10 -16 19 0 10 27 -14 38 -19 8 -26 7 -40 -9 -9 -11 -15 -23 -15 -27 4
-26 -1 -34 -15 -22 -8 6 -12 18 -9 26 3 8 1 14 -5 14 -6 0 -13 -6 -15 -12 -3
-8 -6 -7 -6 4 -1 10 8 18 22 20 37 5 26 32 -15 39 -47 7 -52 2 -32 -30 l17
-26 -29 26 c-16 15 -41 37 -56 49 -21 17 -25 27 -17 36 7 9 7 19 -1 33 -13 26
-16 26 -16 2 0 -11 4 -17 8 -15 4 3 8 0 8 -6 0 -21 -23 -5 -64 45 -27 31 -37
49 -28 52 6 3 12 9 12 15 0 7 -5 6 -14 -1 -11 -10 -20 -1 -47 46 -65 113 -92
178 -118 283 -6 25 -20 63 -31 85 -10 22 -22 57 -25 78 -3 21 -10 35 -15 32
-6 -3 -7 0 -5 8 7 16 -19 39 -60 56 -24 9 -293 11 -1132 9 -606 -2 -1099 0
-1096 5 4 7 -34 12 -70 9 -10 -1 -16 2 -12 7 3 6 -15 13 -40 16 -25 4 -45 11
-45 16 0 5 -6 9 -14 9 -8 0 -17 7 -20 16 -4 10 -13 13 -28 9 -16 -4 -19 -3 -9
3 16 12 -3 27 -24 19 -7 -3 -16 1 -19 9 -6 16 -71 20 -81 4 -10 -17 -24 -11
-22 9 1 12 7 17 18 14 23 -6 56 12 40 21 -6 4 -11 2 -11 -4 0 -8 -6 -7 -21 1
-16 8 -18 13 -9 19 8 5 4 8 -12 7 -21 -2 -25 -7 -24 -28 1 -14 -4 -31 -11 -38
-7 -6 -13 -10 -13 -7 0 2 -3 13 -6 23 -5 15 -4 15 5 3 9 -12 11 -9 11 17 0 17
3 40 6 50 3 11 0 8 -9 -6 -14 -23 -14 -23 -20 -2 -3 11 -10 21 -16 21 -9 0 -9
-5 -1 -21 7 -11 10 -23 7 -25 -7 -8 -33 66 -53 151 -18 74 -19 132 -18 830 0
828 -1 811 64 949 65 137 176 248 315 316 128 61 13 58 2160 59 1721 1 1968
-1 2025 -15z m-5937 -197 c18 -8 69 -54 114 -104 111 -121 166 -148 303 -148
84 0 102 3 153 28 50 25 102 77 143 145 2 4 124 -96 342 -280 l142 -120 0
-174 c0 -163 -1 -174 -17 -165 -19 10 -239 185 -265 211 -112 110 -224 161
-358 163 -65 0 -94 -6 -211 -47 -78 -26 -165 -49 -202 -53 -209 -19 -407 137
-409 323 -1 95 44 182 117 222 28 16 109 15 148 -1z m8102 -622 c153 -40 261
-164 286 -329 33 -211 -123 -426 -330 -454 -213 -30 -397 102 -442 316 -33
160 43 339 177 418 101 59 205 76 309 49z m-1050 -285 c42 -267 3 -626 -96
-873 -53 -133 -63 -148 -93 -134 l-24 11 4 496 c2 324 7 496 14 498 6 2 8 7 5
12 -3 4 4 6 15 3 16 -4 19 -2 14 11 -7 18 0 20 24 7 12 -7 25 -2 47 15 17 13
24 24 18 24 -7 0 -13 7 -13 15 0 17 16 20 25 5 12 -19 25 1 26 38 l1 37 9 -35
c5 -19 16 -78 24 -130z m-6122 66 c15 2 30 -3 42 -16 22 -24 9 -27 -17 -3 -10
9 -18 11 -18 6 0 -12 27 -26 51 -27 9 -1 39 -20 65 -42 27 -23 63 -53 79 -67
17 -14 26 -29 22 -34 -5 -4 -15 1 -23 11 -11 16 -17 17 -36 8 -19 -10 -19 -11
-3 -7 15 4 23 -3 33 -24 7 -16 21 -31 31 -34 16 -4 19 0 15 26 -2 21 0 27 7
20 7 -7 11 -155 12 -434 l2 -424 -99 -48 -100 -48 -18 23 c-40 52 -114 276
-145 441 -25 135 -25 495 1 630 l18 98 29 -30 c20 -21 35 -29 52 -25z m-253
-5 c-4 -16 -13 -87 -20 -157 -22 -228 2 -515 60 -743 17 -63 30 -116 30 -117
0 -10 -113 -2 -165 11 -91 24 -152 63 -224 143 -36 40 -89 90 -117 112 -60 45
-206 119 -356 180 -60 24 -108 48 -108 52 0 5 16 22 35 39 42 37 59 90 45 139
-17 61 -14 68 33 74 23 2 85 10 137 15 112 13 204 53 289 126 68 58 131 102
168 116 53 20 128 38 165 38 36 1 36 0 28 -28z m6365 -1316 c516 -208 754
-300 900 -345 108 -33 185 -64 185 -74 0 -2 -11 -3 -25 -2 -14 0 -25 4 -25 9
0 4 -10 7 -22 7 -13 0 -59 10 -103 21 -44 11 -87 22 -95 23 -8 1 -24 6 -35 11
-24 9 -137 54 -216 85 -31 12 -63 23 -70 24 -8 2 -25 8 -39 14 -38 15 -227 91
-295 117 -107 40 -388 155 -482 197 -73 31 -93 45 -93 60 0 12 5 18 13 15 6
-3 188 -76 402 -162z m-5811 99 c11 -28 7 -32 -41 -50 -27 -9 -86 -32 -133
-50 -539 -204 -626 -236 -858 -315 -248 -85 -302 -111 -370 -183 -30 -31 -50
-56 -46 -56 4 0 -1 -6 -12 -14 -10 -8 -19 -18 -19 -23 -1 -4 -9 -24 -19 -43
-29 -54 -46 -128 -46 -206 0 -41 -6 -83 -14 -98 l-13 -26 -17 24 c-9 14 -21
56 -28 94 -23 133 24 279 119 376 67 68 109 89 267 136 76 23 180 56 230 75
50 18 168 61 261 95 290 107 602 226 680 261 50 22 52 22 59 3z m1260 -615
c-1 -13 -5 -34 -9 -46 l-7 -23 149 0 150 0 12 26 c6 15 14 24 17 22 7 -8 -84
-159 -133 -218 -23 -29 -126 -176 -205 -292 l-79 -117 -102 43 c-56 24 -158
68 -227 98 -69 31 -133 58 -142 61 -18 7 -23 41 -12 84 3 12 34 43 67 70 34
26 106 85 160 130 53 45 103 81 110 79 6 -1 8 -1 4 2 -4 2 -3 10 4 18 6 8 15
11 20 8 5 -3 9 2 9 10 0 21 37 53 63 55 12 0 47 5 77 9 70 12 75 10 74 -19z
m516 -52 c0 -8 -3 -8 -9 1 -7 11 -9 11 -14 -1 -4 -12 10 -15 85 -16 72 -2 94
-6 110 -21 21 -19 16 -45 -7 -36 -26 10 -59 -48 -60 -103 0 -20 -6 -36 -14
-39 -10 -3 -11 2 -6 19 6 18 0 15 -24 -15 -17 -21 -31 -44 -31 -50 0 -6 -13
-26 -29 -44 -16 -17 -32 -41 -36 -52 -3 -11 -10 -20 -14 -20 -8 0 -36 -49 -82
-142 -11 -20 -23 -39 -28 -42 -4 -3 -21 -30 -36 -61 -16 -30 -31 -55 -35 -55
-7 0 -22 -48 -24 -75 -1 -5 -5 -14 -9 -20 -4 -5 -23 -32 -41 -58 l-33 -48 -44
53 c-24 29 -63 76 -86 104 l-43 51 91 129 c51 71 120 170 154 219 34 50 88
128 120 175 104 152 145 193 145 147z m873 -520 c2 -537 7 -500 -59 -477 l-29
10 3 468 c1 257 5 473 7 480 3 8 18 12 41 10 l35 -3 2 -488z m-1952 -42 c75
-38 86 -61 27 -58 l-35 2 -6 -183 c-8 -210 -24 -302 -71 -401 -32 -68 -87
-145 -71 -100 65 181 80 294 70 511 -6 132 0 264 11 264 3 0 36 -16 75 -35z
m1852 -572 c25 -14 57 -18 152 -18 68 0 134 5 152 12 l33 12 15 -51 c16 -55
18 -111 6 -142 -4 -10 -40 -44 -81 -75 -118 -91 -180 -206 -166 -308 l6 -44
-56 63 c-104 119 -152 253 -141 398 6 67 32 170 43 170 3 0 19 -8 37 -17z"/>
<path d="M4652 8217 c-30 -32 -29 -81 3 -113 l25 -25 310 3 310 3 30 31 c24
26 28 39 27 77 -1 25 -5 43 -9 40 -5 -2 -8 -11 -8 -19 0 -12 -2 -12 -14 -2 -8
7 -12 16 -10 20 2 3 -141 7 -319 8 l-323 1 -22 -24z"/>
<path d="M6934 4155 c-53 -53 -6 -135 69 -121 48 9 64 50 43 112 -13 40 -76
45 -112 9z"/>
<path d="M2088 8397 c-117 -33 -211 -122 -249 -235 -20 -60 -20 -60 -72 -72
-71 -17 -102 -34 -159 -88 -82 -76 -99 -132 -53 -177 l24 -25 699 0 c672 0
701 1 723 19 38 31 32 87 -14 145 -21 25 -50 54 -64 64 -14 9 -50 39 -80 65
-84 74 -162 107 -250 107 -70 0 -72 1 -92 33 -34 54 -103 115 -164 142 -69 32
-179 42 -249 22z m192 -159 c63 -33 98 -82 112 -156 13 -72 20 -74 106 -42 29
11 67 20 85 20 40 0 107 -30 160 -72 l41 -33 -40 -7 c-50 -9 -661 -10 -704 -2
-74 15 -94 139 -36 223 58 84 184 115 276 69z"/>
<path d="M7203 7960 c-108 -65 -63 -230 63 -230 41 0 51 5 85 39 32 32 39 46
39 77 0 51 -32 102 -75 120 -46 19 -74 18 -112 -6z"/>
<path d="M6944 7546 c-57 -59 -106 -116 -109 -127 -9 -27 19 -67 51 -75 34 -9
58 10 162 124 83 93 95 119 69 154 -7 9 -26 20 -42 24 -26 6 -36 -1 -131 -100z"/>
<path d="M1985 7578 c-22 -26 -26 -39 -21 -67 7 -44 46 -81 86 -81 16 0 42 11
59 26 65 54 28 154 -58 154 -32 0 -44 -6 -66 -32z"/>
<path d="M2811 7522 c-51 -26 -75 -63 -75 -119 0 -82 51 -133 134 -133 144 0
192 174 68 250 -41 25 -82 25 -127 2z"/>
<path d="M2177 7312 c-38 -41 -32 -51 151 -259 140 -160 154 -170 200 -137 15
10 22 25 22 48 0 27 -19 55 -116 167 -63 74 -131 149 -150 167 -39 37 -82 42
-107 14z"/>
<path d="M7037 7155 c-72 -75 -136 -147 -141 -159 -20 -51 26 -106 73 -88 11
4 78 69 150 144 105 110 131 143 131 166 0 36 -18 59 -53 68 -25 6 -38 -5
-160 -131z"/>
<path d="M2855 6968 c-52 -29 -47 -63 33 -193 67 -109 96 -137 133 -128 28 8
52 48 46 76 -7 27 -113 205 -136 228 -23 24 -53 30 -76 17z"/>
<path d="M9312 6125 c-58 -25 -66 -104 -15 -145 37 -29 79 -26 114 9 46 46 37
106 -21 136 -35 18 -36 18 -78 0z"/>
<path d="M8912 4110 c-51 -22 -46 -106 8 -121 14 -4 98 -7 188 -8 160 -1 163
-1 187 24 30 29 32 55 6 86 -19 23 -24 24 -193 26 -95 1 -183 -2 -196 -7z"/>
<path d="M610 4072 c-32 -26 -32 -78 -1 -104 21 -16 44 -18 246 -18 l224 0 20
26 c26 33 26 55 2 85 -19 24 -22 24 -243 27 -208 3 -226 2 -248 -16z"/>
<path d="M6973 3205 c-29 -8 -70 -23 -91 -34 -92 -47 -202 -179 -202 -243 0
-33 35 -68 67 -68 26 0 40 13 91 89 26 37 54 64 92 85 51 29 62 31 150 31 85
0 100 -3 141 -27 53 -31 106 -87 139 -146 13 -23 32 -44 42 -48 10 -3 46 8 83
27 127 62 232 48 334 -47 50 -46 71 -58 121 -70 120 -28 192 -81 240 -176 25
-51 30 -73 30 -131 0 -62 -2 -68 -17 -62 -89 37 -162 44 -235 21 -45 -13 -46
-13 -61 13 -29 48 -80 93 -131 117 -62 29 -168 32 -239 8 -88 -30 -174 -131
-192 -225 -6 -31 -12 -37 -48 -48 -23 -8 -118 -16 -210 -20 -187 -7 -197 -10
-197 -77 0 -51 37 -74 121 -74 l68 0 -6 -35 c-5 -29 -1 -41 17 -60 l23 -25
737 0 c701 0 738 1 753 18 25 27 21 61 -14 130 -35 71 -89 121 -171 160 l-57
27 6 85 c9 141 -35 258 -135 358 -60 60 -158 115 -226 128 -26 4 -57 23 -96
58 -104 92 -253 127 -385 91 l-65 -17 -51 56 c-79 86 -221 147 -338 145 -20 0
-60 -7 -88 -14z m727 -814 c44 -23 75 -68 84 -119 3 -22 14 -50 25 -63 l18
-23 74 37 c41 21 90 40 110 43 55 9 134 -12 244 -65 178 -86 200 -80 -303 -81
l-443 0 -15 35 c-7 19 -14 58 -14 87 1 128 115 205 220 149z"/>
<path d="M1953 3000 c-47 -28 -56 -53 -64 -183 -6 -92 -13 -129 -32 -170 -52
-112 -126 -163 -253 -173 -88 -7 -114 -22 -114 -65 0 -60 73 -88 183 -69 125
20 231 95 293 206 l36 64 93 0 c89 0 95 1 114 26 27 35 26 59 -4 89 -21 22
-33 25 -100 25 l-75 0 0 65 0 65 43 2 c23 1 126 2 228 2 169 1 189 3 208 20
29 26 28 80 -1 100 -19 14 -62 16 -273 16 -230 0 -253 -2 -282 -20z"/>
<path d="M2482 2624 c-29 -20 -31 -85 -2 -114 44 -44 124 -11 122 51 -2 62
-70 98 -120 63z"/>
<path d="M2292 2454 c-31 -21 -31 -87 0 -108 52 -36 112 -5 110 56 -2 58 -62
86 -110 52z"/>
<path d="M5703 2263 c-51 -10 -69 -80 -32 -127 43 -55 133 -17 131 55 -1 50
-45 82 -99 72z"/>
<path d="M2030 2097 c-52 -26 -48 -121 6 -146 38 -17 63 -13 89 14 36 35 35
96 -1 124 -30 24 -58 26 -94 8z"/>
<path d="M6152 2090 c-46 -19 -48 -95 -3 -119 11 -7 85 -11 175 -11 143 0 158
2 176 20 25 25 26 61 1 91 -18 23 -25 24 -173 26 -84 1 -163 -2 -176 -7z"/>
<path d="M2290 2060 c-43 -43 -11 -120 49 -120 34 0 71 39 71 76 0 33 -34 64
-70 64 -17 0 -39 -9 -50 -20z"/>
</g>
</svg>
